<svg xmlns="http://www.w3.org/2000/svg" viewBox="0 0 64 64">
  <rect width="64" height="64" rx="14" fill="#0a0a0a"/>
  <!-- Rocket body -->
  <path d="M38 12c-8 4-14 14-14 14l6 8c0 0 12-4 18-10 4-4 4-10 0-14s-6-2-10 2z" stroke="url(#g1)" stroke-width="3.5" fill="none" stroke-linecap="round" stroke-linejoin="round"/>
  <!-- Rocket fin -->
  <path d="M24 26l-6 4 4 6 6-2" stroke="#4a9eff" stroke-width="3" fill="none" stroke-linecap="round" stroke-linejoin="round"/>
  <!-- Exhaust cloud -->
  <path d="M16 40c-2 0-4 1-4 3s2 3 4 3c1 0 3-1 3-3" stroke="#9ca3af" stroke-width="2.5" fill="none" stroke-linecap="round"/>
  <!-- Window -->
  <circle cx="36" cy="24" r="3" stroke="#f5a623" stroke-width="2.5" fill="none"/>
  <defs>
    <linearGradient id="g1" x1="0" y1="0" x2="1" y2="1">
      <stop offset="0%" stop-color="#4a9eff"/>
      <stop offset="100%" stop-color="#2dd4bf"/>
    </linearGradient>
  </defs>
</svg>
