<svg xmlns="http://www.w3.org/2000/svg" viewBox="0 0 100 100">
  <!-- D letter - solid -->
  <path d="M28 8 L28 92 L54 92 C78 92 96 74 96 50 C96 26 78 8 54 8 Z" fill="#0f172a"/>
  <path d="M40 22 L40 78 L54 78 C68 78 80 66 80 50 C80 34 68 22 54 22 Z" fill="#fff"/>
  <!-- Circuit traces -->
  <line x1="28" y1="35" x2="12" y2="35" stroke="#0f172a" stroke-width="4" stroke-linecap="round"/>
  <line x1="12" y1="35" x2="12" y2="55" stroke="#0f172a" stroke-width="4" stroke-linecap="round"/>
  <line x1="12" y1="55" x2="22" y2="65" stroke="#0f172a" stroke-width="4" stroke-linecap="round"/>
  <circle cx="12" cy="35" r="4" fill="#0f172a"/>
  <circle cx="12" cy="55" r="4" fill="#0f172a"/>
  <circle cx="22" cy="65" r="4" fill="#0f172a"/>
  <!-- Sun - 8-pointed star -->
  <circle cx="60" cy="50" r="8" fill="#10b981"/>
  <g fill="#10b981">
    <rect x="58" y="32" width="4" height="8" rx="2"/>
    <rect x="58" y="60" width="4" height="8" rx="2"/>
    <rect x="42" y="48" width="8" height="4" rx="2"/>
    <rect x="70" y="48" width="8" height="4" rx="2"/>
    <rect x="48.4" y="36.4" width="4" height="8" rx="2" transform="rotate(-45 50.4 40.4)"/>
    <rect x="67.6" y="55.6" width="4" height="8" rx="2" transform="rotate(-45 69.6 59.6)"/>
    <rect x="48.4" y="55.6" width="4" height="8" rx="2" transform="rotate(45 50.4 59.6)"/>
    <rect x="67.6" y="36.4" width="4" height="8" rx="2" transform="rotate(45 69.6 40.4)"/>
  </g>
</svg>
